<svg xmlns="http://www.w3.org/2000/svg" viewBox="0 0 66.26 42.53"><defs><style>.cls-1{fill:#fff;}</style></defs><title>pon_metro</title><g id="Livello_2" data-name="Livello 2"><g id="Livello_1-2" data-name="Livello 1"><path class="cls-1" d="M5.05,26.72c5.45-2.63,12.1-4,18.11-2.73a17,17,0,0,1,7,3.34c2.2,1.72,3.83,4,5.76,6C43.13,40.71,56.14,46,65.71,39.76c.34-.22.81-.85.37-1.21s-1.18-.06-1.6.22c-4.5,2.94-10.4,2.2-15.2.54A29.32,29.32,0,0,1,41.6,35.1,41.25,41.25,0,0,1,35.29,29a19.92,19.92,0,0,0-13-7A34,34,0,0,0,4.39,25.39c-1.36.66-.7,2,.66,1.33"/><path class="cls-1" d="M9.86,25.14q-3.64-7.32-7.3-14.63c-.5-1-2-.13-1.5.87Q4.72,18.7,8.36,26c.5,1,2,.13,1.5-.87"/><path class="cls-1" d="M19.14,25.33V8.24a.87.87,0,0,0-1.73,0V25.33a.87.87,0,0,0,1.73,0"/><path class="cls-1" d="M7,13.74,9,18.2c.46,1,1.95.14,1.5-.88l-2-4.45c-.46-1-1.95-.14-1.5.87"/><path class="cls-1" d="M12.74,12.62c.24,1.4.49,2.81.74,4.21.19,1.1,1.86.63,1.67-.46-.25-1.41-.5-2.81-.74-4.21-.2-1.1-1.87-.63-1.67.46"/><path class="cls-1" d="M1.09,11.94l18-3.32c1.09-.21.63-1.88-.46-1.67l-18,3.32c-1.1.2-.63,1.87.46,1.67"/><path class="cls-1" d="M25.8,26.06Q27.87,20.54,30,15c.39-1-1.29-1.49-1.68-.46q-2.07,5.52-4.15,11c-.39,1.05,1.29,1.5,1.68.47"/><path class="cls-1" d="M22.72,15.71c-.41,1.07-.82,2.14-1.24,3.21s1.28,1.5,1.68.47l1.23-3.22c.41-1.05-1.27-1.49-1.67-.46"/><path class="cls-1" d="M30.14,13.7,18.83,10.27c-1.07-.33-1.53,1.35-.46,1.67l11.31,3.43c1.07.33,1.53-1.35.46-1.67"/><path class="cls-1" d="M28,13.43q2.28-5.88,4.58-11.77c.4-1-1.27-1.49-1.67-.46L26.35,13c-.4,1,1.27,1.49,1.68.46"/><path class="cls-1" d="M32.15,31.46q6.93-11,13.87-22c.59-.95-.91-1.82-1.5-.88l-13.87,22c-.6,1,.9,1.83,1.5.88"/><path class="cls-1" d="M35.69,10.05c-.66,1.24-1.33,2.48-2,3.72-.53,1,1,1.86,1.49.87l2-3.71c.53-1-1-1.86-1.49-.88"/><path class="cls-1" d="M32.28,16.91l-2,3.22c-.59,1,.91,1.83,1.5.88s1.32-2.15,2-3.22a.87.87,0,0,0-1.5-.88"/><path class="cls-1" d="M30.55,1.61l15.28,8.47a.86.86,0,0,0,.87-1.49L31.42.12a.86.86,0,0,0-.87,1.49"/><path class="cls-1" d="M37.21,36.59,50.34,25.44c.85-.72-.38-1.94-1.23-1.22L36,35.36c-.86.73.38,2,1.22,1.23"/><path class="cls-1" d="M40.8,21.2l-1.48,2.47a.87.87,0,0,0,1.49.88l1.49-2.48a.87.87,0,0,0-1.5-.87"/><path class="cls-1" d="M40.44,27,39,28.7a.87.87,0,0,0,0,1.22.86.86,0,0,0,1.22,0c.5-.57,1-1.15,1.49-1.73a.89.89,0,0,0,0-1.23.88.88,0,0,0-1.23,0"/><path class="cls-1" d="M51.61,24.59Q47,20.2,42.33,15.8c-.81-.77-2,.45-1.22,1.22l9.27,8.79c.81.77,2-.45,1.23-1.22"/><path class="cls-1" d="M7.19,32.2a1.27,1.27,0,0,0-.31-.88,1,1,0,0,0-.8-.32.63.63,0,0,0-.72.7v1.71a1.59,1.59,0,0,0,.84.21A.84.84,0,0,0,7,33.15a2,2,0,0,0,.22-.95m1.2,0A2.9,2.9,0,0,1,7.83,34a1.94,1.94,0,0,1-1.63.81,2.66,2.66,0,0,1-.84-.12v1.14a.52.52,0,0,1-.18.43.6.6,0,0,1-.42.16.57.57,0,0,1-.41-.16.52.52,0,0,1-.18-.43V30.4A.59.59,0,0,1,4.34,30a.64.64,0,0,1,.42-.15.59.59,0,0,1,.46.19,1.79,1.79,0,0,1,.86-.19,2.18,2.18,0,0,1,1.68.7,2.39,2.39,0,0,1,.63,1.69"/><path class="cls-1" d="M13.1,32.34a1.36,1.36,0,0,0-.35-1,1.24,1.24,0,0,0-.94-.38,1.23,1.23,0,0,0-.92.38,1.34,1.34,0,0,0-.36,1c0,.9.43,1.35,1.28,1.35a1.24,1.24,0,0,0,1-.36,1.39,1.39,0,0,0,.33-1m1.2,0a2.54,2.54,0,0,1-.68,1.83,2.4,2.4,0,0,1-1.81.71A2.39,2.39,0,0,1,10,34.16a2.57,2.57,0,0,1-.65-1.82,2.54,2.54,0,0,1,.7-1.8,2.35,2.35,0,0,1,1.78-.73,2.34,2.34,0,0,1,1.79.73,2.47,2.47,0,0,1,.7,1.8"/><path class="cls-1" d="M20,34.21a.54.54,0,0,1-.18.44.63.63,0,0,1-.84,0,.54.54,0,0,1-.18-.44V31.67a.6.6,0,0,0-.41-.6,2.36,2.36,0,0,0-.88-.09c-.94,0-1.22,0-.85,0v3.22a.54.54,0,0,1-.17.44.63.63,0,0,1-.84,0,.54.54,0,0,1-.18-.44V29.82h2.67a1.85,1.85,0,0,1,1.34.51A1.79,1.79,0,0,1,20,31.66Z"/><path class="cls-1" d="M12.25,41.15a.56.56,0,0,1-.18.44.66.66,0,0,1-.84,0,.56.56,0,0,1-.18-.44V38.6a.6.6,0,0,0-.41-.59,2.22,2.22,0,0,0-.89-.1c-.94,0-1.21,0-.83,0v3.22a.56.56,0,0,1-.18.44.64.64,0,0,1-.42.15.6.6,0,0,1-.42-.15.56.56,0,0,1-.18-.44V38.6A.6.6,0,0,0,7.31,38a2.22,2.22,0,0,0-.89-.1c-.94,0-1.22,0-.85,0v3.21a.61.61,0,0,1-.17.45.64.64,0,0,1-.43.15.64.64,0,0,1-.42-.15.56.56,0,0,1-.18-.44v-4.4h6a1.86,1.86,0,0,1,1.35.51,1.83,1.83,0,0,1,.52,1.35Z"/><path class="cls-1" d="M16.9,38.89c-.13-.67-.48-1-1-1a1.14,1.14,0,0,0-1.29,1Zm1.26,1.19H14.7a1.2,1.2,0,0,0,1.12.54.62.62,0,0,1,.66.62.54.54,0,0,1-.17.4.64.64,0,0,1-.49.17,2.35,2.35,0,0,1-2.48-2.5,2.66,2.66,0,0,1,.66-1.9,2.42,2.42,0,0,1,1.85-.71,2.07,2.07,0,0,1,1.77.85,3.24,3.24,0,0,1,.54,1.91Z"/><path class="cls-1" d="M21.61,36.82A.56.56,0,0,1,22,37a.63.63,0,0,1,0,.84.54.54,0,0,1-.43.18h-.84v2.14a1.26,1.26,0,0,0,0,.37c0,.07.13.1.3.1a1.7,1.7,0,0,0,.42,0,.6.6,0,0,1,.47.15.58.58,0,0,1,.21.45c0,.42-.37.64-1.11.64-1,0-1.52-.55-1.52-1.66V38a.56.56,0,0,1-.39-.19.63.63,0,0,1-.14-.4c0-.18.18-.38.53-.59v-.48a.55.55,0,0,1,.18-.43.63.63,0,0,1,.84,0,.55.55,0,0,1,.18.43v.48Z"/><path class="cls-1" d="M26,36.74a.64.64,0,0,1,.36,1,.44.44,0,0,1-.38.17l-.14,0a.42.42,0,0,0-.14,0,1.44,1.44,0,0,0-.88.37,1.06,1.06,0,0,0-.46.76v2.13a.56.56,0,0,1-.18.44.66.66,0,0,1-.84,0,.56.56,0,0,1-.18-.44V37.41a.54.54,0,0,1,.18-.43.6.6,0,0,1,.42-.16.53.53,0,0,1,.58.47,1.41,1.41,0,0,1,.55-.42,1.79,1.79,0,0,1,.75-.17,1.42,1.42,0,0,1,.36,0"/><path class="cls-1" d="M31,39.28a1.35,1.35,0,0,0-.36-1,1.21,1.21,0,0,0-.93-.37,1.19,1.19,0,0,0-.92.38,1.32,1.32,0,0,0-.36,1c0,.89.43,1.34,1.28,1.34a1.27,1.27,0,0,0,1-.35,1.41,1.41,0,0,0,.33-1m1.2,0a2.53,2.53,0,0,1-.68,1.82,2.38,2.38,0,0,1-1.81.71,2.42,2.42,0,0,1-1.83-.71A2.78,2.78,0,0,1,28,37.47a2.55,2.55,0,0,1,3.57,0,2.51,2.51,0,0,1,.7,1.81"/></g></g></svg>