<svg id="Livello_1" data-name="Livello 1" xmlns="http://www.w3.org/2000/svg" viewBox="0 0 228.45 37.77"><defs><style>.cls-1,.cls-2,.cls-6,.cls-7,.cls-8{fill:#fff;}.cls-2,.cls-5,.cls-6,.cls-7,.cls-8{isolation:isolate;}.cls-2{font-size:17.89px;font-family:Calibri-Bold, Calibri;font-weight:700;letter-spacing:-0.01em;}.cls-3{letter-spacing:-0.02em;}.cls-4{letter-spacing:-0.02em;}.cls-6,.cls-7,.cls-8{font-size:9.76px;font-family:Calibri;}.cls-6{letter-spacing:-0.01em;}.cls-8{letter-spacing:-0.02em;}.cls-9{letter-spacing:-0.02em;}.cls-10{letter-spacing:-0.01em;}.cls-11{letter-spacing:-0.01em;}.cls-12{letter-spacing:0em;}.cls-13{letter-spacing:-0.01em;}</style></defs><title>unione_europea</title><g id="Livello_1-2" data-name="Livello 1-2"><polygon class="cls-1" points="0 0 55.6 0 55.6 37.77 0 37.77 0 0 0 0"/><polygon class="cls-1" points="1.07 1.04 54.54 1.04 54.54 36.68 1.07 36.68 1.07 1.04 1.07 1.04"/><polygon points="26.66 8.8 27.79 7.98 28.92 8.8 28.49 7.47 29.64 6.65 28.23 6.65 27.79 5.3 27.36 6.65 25.95 6.65 27.09 7.47 26.66 8.8 26.66 8.8"/><polygon points="20.83 10.37 21.95 9.55 23.08 10.37 22.65 9.04 23.8 8.22 22.39 8.22 21.95 6.87 21.52 8.22 20.11 8.22 21.25 9.04 20.83 10.37 20.83 10.37"/><polygon points="17.68 11.15 17.25 12.5 15.84 12.5 16.98 13.32 16.56 14.65 17.68 13.83 18.81 14.65 18.38 13.32 19.53 12.5 18.11 12.5 17.68 11.15 17.68 11.15"/><polygon points="16.12 19.66 17.24 20.48 16.81 19.15 17.96 18.33 16.55 18.33 16.12 16.98 15.69 18.33 14.27 18.33 15.42 19.15 14.98 20.48 16.12 19.66 16.12 19.66"/><polygon points="18.11 24.18 17.68 22.83 17.25 24.18 15.84 24.18 16.98 25 16.56 26.33 17.68 25.51 18.81 26.33 18.38 25 19.53 24.18 18.11 24.18 18.11 24.18"/><polygon points="22.39 28.46 21.96 27.11 21.53 28.46 20.12 28.46 21.26 29.28 20.83 30.61 21.96 29.79 23.09 30.61 22.66 29.28 23.81 28.46 22.39 28.46 22.39 28.46"/><polygon points="28.23 30.01 27.79 28.66 27.36 30.01 25.95 30.01 27.09 30.83 26.67 32.16 27.79 31.34 28.92 32.16 28.49 30.83 29.64 30.01 28.23 30.01 28.23 30.01"/><polygon points="34.06 28.46 33.62 27.11 33.19 28.46 31.78 28.46 32.93 29.28 32.49 30.61 33.62 29.79 34.75 30.61 34.32 29.28 35.47 28.46 34.06 28.46 34.06 28.46"/><polygon points="38.34 24.18 37.91 22.83 37.47 24.18 36.06 24.18 37.2 25 36.77 26.33 37.91 25.51 39.03 26.33 38.6 25 39.75 24.18 38.34 24.18 38.34 24.18"/><polygon points="41.3 18.31 39.89 18.31 39.45 16.96 39.02 18.32 37.61 18.31 38.76 19.14 38.33 20.46 39.45 19.64 40.58 20.46 40.16 19.14 41.3 18.31 41.3 18.31"/><polygon points="36.77 14.64 37.91 13.81 39.03 14.64 38.6 13.3 39.75 12.48 38.34 12.48 37.91 11.13 37.47 12.48 36.06 12.48 37.2 13.3 36.77 14.64 36.77 14.64"/><polygon points="33.64 6.87 33.21 8.22 31.79 8.22 32.94 9.04 32.51 10.37 33.64 9.55 34.77 10.37 34.34 9.04 35.49 8.22 34.07 8.22 33.64 6.87 33.64 6.87"/><text class="cls-2" transform="translate(61.01 18.05)">UNIONE EU<tspan class="cls-3" x="83.68" y="0">R</tspan><tspan x="93.4" y="0">OP</tspan><tspan class="cls-4" x="114.66" y="0">E</tspan><tspan x="122.99" y="0">A</tspan></text><g class="cls-5"><text class="cls-6" transform="translate(61.01 30.48)">F</text><text class="cls-7" transform="translate(65.36 30.48)">ondi Struttu</text><text class="cls-8" transform="translate(112.8 30.48)">r</text><text class="cls-7" transform="translate(116.01 30.48)">ali e di I<tspan class="cls-9" x="30.46" y="0">n</tspan><tspan class="cls-10" x="35.42" y="0">v</tspan><tspan x="39.74" y="0">e</tspan><tspan class="cls-11" x="44.59" y="0">s</tspan><tspan class="cls-12" x="48.3" y="0">time</tspan><tspan class="cls-13" x="66.39" y="0">nt</tspan><tspan x="74.6" y="0">o</tspan></text><text class="cls-5"/><text class="cls-7" transform="translate(190.59 30.48)">o Eu</text><text class="cls-8" transform="translate(207.84 30.48)">r</text><text class="cls-7" transform="translate(211.08 30.48)">opei</text></g></g></svg>