<svg xmlns="http://www.w3.org/2000/svg" xmlns:xlink="http://www.w3.org/1999/xlink" viewBox="0 0 445.01 47.67"><defs><style>.cls-1,.cls-2,.cls-3{fill:#fff;}.cls-2{font-size:17.89px;font-family:Calibri-Bold, Calibri;font-weight:700;letter-spacing:-0.01em;}.cls-3{font-size:9.76px;font-family:Calibri;}.cls-4{letter-spacing:-0.01em;}.cls-5{letter-spacing:-0.02em;}.cls-6{letter-spacing:-0.02em;}.cls-7{letter-spacing:-0.01em;}.cls-8{letter-spacing:-0.01em;}.cls-9{letter-spacing:-0.01em;}.cls-10{letter-spacing:-0.02em;}</style></defs><title>Risorsa 1</title><g id="Livello_2" data-name="Livello 2"><g id="Livello_1-2" data-name="Livello 1"><image width="259" height="300" transform="translate(150.96 1.85) scale(0.15)" xlink:href="logo_repita.png"/><polygon class="cls-1" points="209.1 6.78 264.71 6.78 264.71 44.55 209.1 44.55 209.1 6.78 209.1 6.78"/><polygon class="cls-1" points="210.17 7.82 263.64 7.82 263.64 43.46 210.17 43.46 210.17 7.82 210.17 7.82"/><polygon points="235.76 15.59 236.9 14.76 238.02 15.59 237.59 14.26 238.74 13.43 237.33 13.43 236.9 12.08 236.46 13.43 235.05 13.43 236.2 14.26 235.76 15.59 235.76 15.59"/><polygon points="229.93 17.15 231.05 16.33 232.18 17.15 231.75 15.82 232.9 15 231.49 15 231.05 13.65 230.62 15 229.21 15 230.36 15.82 229.93 17.15 229.93 17.15"/><polygon points="226.78 17.93 226.35 19.28 224.94 19.28 226.09 20.11 225.66 21.43 226.78 20.61 227.91 21.43 227.48 20.11 228.63 19.28 227.22 19.28 226.78 17.93 226.78 17.93"/><polygon points="225.22 26.44 226.34 27.27 225.91 25.93 227.06 25.11 225.65 25.11 225.22 23.76 224.79 25.11 223.37 25.11 224.52 25.93 224.09 27.27 225.22 26.44 225.22 26.44"/><polygon points="227.22 30.96 226.78 29.61 226.35 30.96 224.94 30.96 226.09 31.78 225.66 33.12 226.78 32.29 227.91 33.12 227.48 31.78 228.63 30.96 227.22 30.96 227.22 30.96"/><polygon points="231.5 35.24 231.07 33.89 230.63 35.24 229.22 35.24 230.37 36.06 229.94 37.4 231.07 36.57 232.19 37.4 231.76 36.06 232.91 35.24 231.5 35.24 231.5 35.24"/><polygon points="237.33 36.79 236.9 35.44 236.46 36.79 235.05 36.79 236.2 37.61 235.77 38.94 236.9 38.12 238.02 38.94 237.59 37.61 238.74 36.79 237.33 36.79 237.33 36.79"/><polygon points="243.16 35.24 242.73 33.89 242.29 35.24 240.88 35.24 242.03 36.06 241.6 37.4 242.73 36.57 243.85 37.4 243.42 36.06 244.57 35.24 243.16 35.24 243.16 35.24"/><polygon points="247.44 30.96 247.01 29.61 246.57 30.96 245.16 30.96 246.31 31.78 245.88 33.12 247.01 32.29 248.14 33.12 247.71 31.78 248.85 30.96 247.44 30.96 247.44 30.96"/><polygon points="250.4 25.09 248.99 25.09 248.55 23.75 248.13 25.1 246.71 25.09 247.86 25.92 247.43 27.25 248.55 26.43 249.68 27.25 249.26 25.92 250.4 25.09 250.4 25.09"/><polygon points="245.88 21.42 247.01 20.6 248.14 21.42 247.71 20.09 248.85 19.27 247.44 19.27 247.01 17.92 246.57 19.27 245.16 19.27 246.31 20.09 245.88 21.42 245.88 21.42"/><polygon points="242.74 13.65 242.31 15 240.9 15 242.04 15.82 241.62 17.15 242.75 16.33 243.87 17.15 243.44 15.82 244.59 15 243.17 15 242.74 13.65 242.74 13.65"/><text class="cls-2" transform="translate(270.11 24.84)">UNIONE EUROPEA</text><text class="cls-3" transform="translate(270.11 37.26)"><tspan class="cls-4">F</tspan><tspan x="4.35" y="0">ondi Struttu</tspan><tspan class="cls-5" x="51.79" y="0">r</tspan><tspan x="55" y="0">ali e di I</tspan><tspan class="cls-6" x="85.45" y="0">n</tspan><tspan class="cls-7" x="90.41" y="0">v</tspan><tspan x="94.72" y="0">e</tspan><tspan class="cls-8" x="99.58" y="0">st</tspan><tspan x="103.29" y="0">ime</tspan><tspan class="cls-9" x="121.38" y="0">nt</tspan><tspan x="129.58" y="0">o Eu</tspan><tspan class="cls-10" x="146.83" y="0">r</tspan><tspan x="150.07" y="0">opei</tspan></text><image width="200" height="149" transform="translate(74.51) scale(0.32)" xlink:href="stemma_BNcroce_Comune.png"/><path class="cls-1" d="M5.05,28.44c5.45-2.63,12.1-4,18.11-2.74a17,17,0,0,1,7,3.35C32.34,30.77,34,33,35.9,35c7.23,7.44,20.24,12.75,29.81,6.48.34-.22.81-.84.37-1.2s-1.18-.06-1.6.21c-4.5,2.94-10.4,2.21-15.2.55a29.06,29.06,0,0,1-7.68-4.22,40.34,40.34,0,0,1-6.31-6.15,19.91,19.91,0,0,0-13-7A34,34,0,0,0,4.39,27.1c-1.36.66-.7,2,.66,1.34"/><path class="cls-1" d="M9.86,26.85q-3.64-7.3-7.3-14.63c-.5-1-2-.12-1.5.88q3.66,7.3,7.3,14.63c.5,1,2,.12,1.5-.88"/><path class="cls-1" d="M19.14,27V10a.87.87,0,0,0-1.73,0V27a.87.87,0,0,0,1.73,0"/><path class="cls-1" d="M7,15.46l2,4.45c.46,1,1.95.14,1.5-.87l-2-4.46c-.46-1-1.95-.14-1.5.88"/><path class="cls-1" d="M12.74,14.33c.24,1.41.49,2.81.74,4.21.19,1.1,1.86.63,1.67-.46-.25-1.4-.5-2.8-.74-4.21-.2-1.1-1.87-.63-1.67.46"/><path class="cls-1" d="M1.09,13.65l18-3.32c1.09-.2.63-1.87-.46-1.67L.63,12c-1.1.21-.63,1.88.46,1.67"/><path class="cls-1" d="M25.8,27.77q2.07-5.5,4.15-11c.39-1.05-1.29-1.5-1.68-.46q-2.07,5.51-4.15,11c-.39,1,1.29,1.49,1.68.46"/><path class="cls-1" d="M22.72,17.42c-.41,1.08-.82,2.15-1.24,3.22s1.28,1.49,1.68.46l1.23-3.22c.41-1-1.27-1.49-1.67-.46"/><path class="cls-1" d="M30.14,15.41,18.83,12a.87.87,0,0,0-.46,1.67l11.31,3.44a.87.87,0,0,0,.46-1.68"/><path class="cls-1" d="M28,15.14q2.28-5.88,4.58-11.76c.4-1-1.27-1.49-1.67-.46L26.35,14.68c-.4,1,1.27,1.49,1.68.46"/><path class="cls-1" d="M32.15,33.18q6.93-11,13.87-22c.59-1-.91-1.82-1.5-.88l-13.87,22c-.6,1,.9,1.82,1.5.88"/><path class="cls-1" d="M35.69,11.77c-.66,1.23-1.33,2.47-2,3.71-.53,1,1,1.86,1.49.88l2-3.72c.53-1-1-1.86-1.49-.87"/><path class="cls-1" d="M32.28,18.63l-2,3.21c-.59,1,.91,1.83,1.5.88s1.32-2.15,2-3.22-.92-1.82-1.5-.87"/><path class="cls-1" d="M30.55,3.33,45.83,11.8c1,.54,1.85-1,.87-1.5L31.42,1.83c-1-.54-1.85,1-.87,1.5"/><path class="cls-1" d="M37.21,38.3,50.34,27.16c.85-.72-.38-1.94-1.23-1.23L36,37.08c-.86.72.38,1.94,1.22,1.22"/><path class="cls-1" d="M40.8,22.91l-1.48,2.48a.86.86,0,0,0,1.49.87c.5-.82,1-1.65,1.49-2.48s-.92-1.83-1.5-.87"/><path class="cls-1" d="M40.44,28.68,39,30.41a.88.88,0,0,0,0,1.23.87.87,0,0,0,1.22,0l1.49-1.74a.87.87,0,0,0-1.23-1.22"/><path class="cls-1" d="M51.61,26.3l-9.28-8.79c-.81-.77-2,.45-1.22,1.23q4.64,4.38,9.27,8.79c.81.77,2-.46,1.23-1.23"/><path class="cls-1" d="M7.19,33.92A1.26,1.26,0,0,0,6.88,33a1,1,0,0,0-.8-.33.63.63,0,0,0-.72.71v1.7a1.59,1.59,0,0,0,.84.21A.83.83,0,0,0,7,34.86a2,2,0,0,0,.22-.94m1.2,0a2.9,2.9,0,0,1-.56,1.8,2,2,0,0,1-1.63.8,2.66,2.66,0,0,1-.84-.12v1.14a.56.56,0,0,1-.18.44.65.65,0,0,1-.42.16A.62.62,0,0,1,4.35,38a.56.56,0,0,1-.18-.44V32.12a.57.57,0,0,1,.17-.44.63.63,0,0,1,.88,0,1.79,1.79,0,0,1,.86-.2,2.16,2.16,0,0,1,1.68.71,2.38,2.38,0,0,1,.63,1.69"/><path class="cls-1" d="M13.1,34.06a1.37,1.37,0,0,0-.35-1,1.24,1.24,0,0,0-.94-.37,1.19,1.19,0,0,0-.92.38,1.34,1.34,0,0,0-.36,1c0,.89.43,1.34,1.28,1.34a1.27,1.27,0,0,0,1-.35,1.41,1.41,0,0,0,.33-1m1.2,0a2.53,2.53,0,0,1-.68,1.82,2.37,2.37,0,0,1-1.81.71A2.38,2.38,0,0,1,10,35.88a2.58,2.58,0,0,1-.65-1.82,2.55,2.55,0,0,1,.7-1.81,2.35,2.35,0,0,1,1.78-.73,2.34,2.34,0,0,1,1.79.73,2.49,2.49,0,0,1,.7,1.81"/><path class="cls-1" d="M20,35.92a.55.55,0,0,1-.18.45.66.66,0,0,1-.84,0,.54.54,0,0,1-.18-.44V33.38a.59.59,0,0,0-.41-.59,2.14,2.14,0,0,0-.88-.1c-.94,0-1.22,0-.85,0v3.21a.56.56,0,0,1-.17.45.66.66,0,0,1-.84,0,.55.55,0,0,1-.18-.45V31.53h2.67a1.85,1.85,0,0,1,1.34.51A1.79,1.79,0,0,1,20,33.38Z"/><path class="cls-1" d="M12.25,42.86a.54.54,0,0,1-.18.44.63.63,0,0,1-.84,0,.54.54,0,0,1-.18-.44V40.32a.6.6,0,0,0-.41-.6,2.41,2.41,0,0,0-.89-.1c-.94,0-1.21,0-.83,0v3.22a.54.54,0,0,1-.18.44.6.6,0,0,1-.42.16.57.57,0,0,1-.42-.16.54.54,0,0,1-.18-.44V40.32a.6.6,0,0,0-.41-.6,2.41,2.41,0,0,0-.89-.1c-.94,0-1.22,0-.85,0v3.21a.58.58,0,0,1-.17.45.6.6,0,0,1-.43.16.6.6,0,0,1-.42-.16.54.54,0,0,1-.18-.44v-4.4h6a1.9,1.9,0,0,1,1.35.51,1.86,1.86,0,0,1,.52,1.35Z"/><path class="cls-1" d="M16.9,40.6c-.13-.66-.48-1-1-1a1.15,1.15,0,0,0-1.29,1Zm1.26,1.19H14.7a1.18,1.18,0,0,0,1.12.54.62.62,0,0,1,.48.19.6.6,0,0,1,.18.43.58.58,0,0,1-.17.41.68.68,0,0,1-.49.17,2.43,2.43,0,0,1-1.8-.69A2.46,2.46,0,0,1,13.34,41a2.68,2.68,0,0,1,.66-1.9,2.42,2.42,0,0,1,1.85-.71,2.08,2.08,0,0,1,1.77.86,3.2,3.2,0,0,1,.54,1.91Z"/><path class="cls-1" d="M21.61,38.53a.54.54,0,0,1,.43.18.57.57,0,0,1,.16.42.57.57,0,0,1-.16.41.54.54,0,0,1-.43.18h-.84v2.14a1.35,1.35,0,0,0,0,.38c0,.07.13.09.3.09a2.27,2.27,0,0,0,.42,0,.53.53,0,0,1,.47.15.56.56,0,0,1,.21.44c0,.43-.37.65-1.11.65-1,0-1.52-.56-1.52-1.67V39.71a.49.49,0,0,1-.39-.19.6.6,0,0,1-.14-.39c0-.19.18-.38.53-.6v-.47a.56.56,0,0,1,.18-.44.63.63,0,0,1,.84,0,.56.56,0,0,1,.18.44v.47Z"/><path class="cls-1" d="M26,38.45a.6.6,0,0,1,.5.63.61.61,0,0,1-.14.4.46.46,0,0,1-.38.16.42.42,0,0,1-.14,0l-.14,0a1.46,1.46,0,0,0-.88.38,1,1,0,0,0-.46.76v2.12a.54.54,0,0,1-.18.44.63.63,0,0,1-.84,0,.54.54,0,0,1-.18-.44V39.13a.56.56,0,0,1,.18-.44.65.65,0,0,1,.42-.16.53.53,0,0,1,.58.48,1.53,1.53,0,0,1,.55-.43,1.79,1.79,0,0,1,.75-.17,2.09,2.09,0,0,1,.36,0"/><path class="cls-1" d="M31,41a1.36,1.36,0,0,0-.36-1,1.25,1.25,0,0,0-.93-.37,1.23,1.23,0,0,0-.92.38,1.34,1.34,0,0,0-.36,1c0,.9.43,1.34,1.28,1.34a1.23,1.23,0,0,0,1-.35A1.41,1.41,0,0,0,31,41m1.2,0a2.56,2.56,0,0,1-.68,1.83,2.42,2.42,0,0,1-1.81.71,2.39,2.39,0,0,1-1.83-.72A2.57,2.57,0,0,1,27.25,41a2.54,2.54,0,0,1,.7-1.8,2.53,2.53,0,0,1,3.57,0,2.53,2.53,0,0,1,.7,1.81"/></g></g></svg>